<svg xmlns="http://www.w3.org/2000/svg" viewBox="0 0 1440 320"><path fill="#fff" fill-opacity="1" d="M0,256L34.3,245.3C68.6,235,137,213,206,181.3C274.3,149,343,107,411,112C480,117,549,171,617,165.3C685.7,160,754,96,823,80C891.4,64,960,96,1029,128C1097.1,160,1166,192,1234,176C1302.9,160,1371,96,1406,64L1440,32L1440,320L1405.7,320C1371.4,320,1303,320,1234,320C1165.7,320,1097,320,1029,320C960,320,891,320,823,320C754.3,320,686,320,617,320C548.6,320,480,320,411,320C342.9,320,274,320,206,320C137.1,320,69,320,34,320L0,320Z"></path></svg>