<svg xmlns="http://www.w3.org/2000/svg" viewBox="0 0 1440 320">
  <path fill="#fff" fill-opacity="1" d="M0,128L18.5,154.7C36.9,181,74,235,111,250.7C147.7,267,185,245,222,250.7C258.5,256,295,288,332,288C369.2,288,406,256,443,224C480,192,517,160,554,160C590.8,160,628,192,665,186.7C701.5,181,738,139,775,138.7C812.3,139,849,181,886,202.7C923.1,224,960,224,997,202.7C1033.8,181,1071,139,1108,149.3C1144.6,160,1182,224,1218,261.3C1255.4,299,1292,309,1329,288C1366.2,267,1403,213,1422,186.7L1440,160L1440,0L1421.5,0C1403.1,0,1366,0,1329,0C1292.3,0,1255,0,1218,0C1181.5,0,1145,0,1108,0C1070.8,0,1034,0,997,0C960,0,923,0,886,0C849.2,0,812,0,775,0C738.5,0,702,0,665,0C627.7,0,591,0,554,0C516.9,0,480,0,443,0C406.2,0,369,0,332,0C295.4,0,258,0,222,0C184.6,0,148,0,111,0C73.8,0,37,0,18,0L0,0Z"></path>
</svg>